<svg width="212" height="60" viewBox="0 0 212 60" fill="none" xmlns="http://www.w3.org/2000/svg">
<path fill-rule="evenodd" clip-rule="evenodd" d="M1 10L48 1H50.5L50 44L5 58.5L3 56.5L1 10ZM46 5L6 13L7 53.5L46 41V5ZM34 29L33.5 37C33.6667 37.5 34.2 38.5 35 38.5C32.3333 40.3333 26.3 43.3 23.5 40.5C23 40.1667 22 38.1 22 32.5L11 35L10 33.5L27 16.5L44 25V25.8182L34 29Z" fill="#38B800" stroke="#38B800"/>
<path d="M92.5 40V17H99V40H92.5Z" fill="white"/>
<path d="M92.5 10V15H99V10H92.5Z" fill="white"/>
<path d="M110.5 11.5H105V17H102V22H105V36C105 39.2 107.667 40 109 40H114.5V36H112.5C110.9 36 110.5 34.6667 110.5 34V22H114.5V17H110.5V11.5Z" fill="white"/>
<path d="M124 10H118.5V40H124V26C124 25 125 22 128.5 22C131.3 22 132.333 23.6667 132.5 24.5V40H138V23C138 21 135.5 17 130.5 17C126.5 17 124.5 19.3333 124 20.5V10Z" fill="white"/>
<path d="M149 17H143.5V40H149V24.5C149.333 23.6667 150.6 22 153 22C155.4 22 156.333 23.6667 156.5 24.5V40H162V24.5C162.333 23.6667 163.6 22 166 22C168.4 22 169.333 23.6667 169.5 24.5V40H175V22C175 20.5 172 17 168 17C164.8 17 162.333 19.3333 161.5 20.5C161.5 19.5 159.5 17 155.5 17C152.3 17 149.833 19.3333 149 20.5V17Z" fill="white"/>
<path d="M186.5 17H180.5V40H186.5V17Z" fill="white"/>
<path d="M180.5 10V15H186.5V10H180.5Z" fill="white"/>
<path d="M211 25H205.5C205.333 24 204.2 22 201 22C197 22 196.5 25.5 196.5 29C196.5 32.5 198 35.5 201.5 35.5C204.3 35.5 205.333 32.8333 205.5 31.5H211C211.167 34.3333 209.4 40 201 40C190.5 40 191 30.5 191 29C191 27.5 191 17 201 17C209 17 211 22.3333 211 25Z" fill="white"/>
<path fill-rule="evenodd" clip-rule="evenodd" d="M63 10V40H70V28H78.5C79.3333 28 81 28.5 81 30.5V37.5C81 38.3333 81.5 40 83.5 40H89C88.1667 39.6667 86.5 38.7 86.5 37.5V29.5C86.3333 28.3333 85.4 26 83 26C84.5 25.3333 87.5 22.8 87.5 18C87.5 13.2 83.1667 10.6667 81 10H63ZM70 23V15H79C80.1667 15.1667 82.5 16.2 82.5 19C82.5 21.8 79.8333 22.8333 78.5 23H70Z" fill="white"/>
</svg>
