<svg width="40" height="32" viewBox="0 0 40 32" fill="none" xmlns="http://www.w3.org/2000/svg">
<rect x="1" y="9.03198" width="24" height="15" fill="#FFDE46"/>
<circle cx="31" cy="22.532" r="8" fill="#FFDE46"/>
<path d="M7.96232 12.2478H5.98937C5.55487 12.2478 5.20264 12.6 5.20264 13.0345V14.2913C5.20264 14.7258 5.55487 15.078 5.98937 15.078H7.96232C8.39682 15.078 8.74905 14.7258 8.74905 14.2913V13.0345C8.74905 12.6 8.39682 12.2478 7.96232 12.2478Z" fill="#403F41"/>
<path d="M14.1628 12.2478H12.1898C11.7553 12.2478 11.4031 12.6 11.4031 13.0345V14.2913C11.4031 14.7258 11.7553 15.078 12.1898 15.078H14.1628C14.5973 15.078 14.9495 14.7258 14.9495 14.2913V13.0345C14.9495 12.6 14.5973 12.2478 14.1628 12.2478Z" fill="#403F41"/>
<path d="M20.3637 12.2478H18.3907C17.9562 12.2478 17.604 12.6 17.604 13.0345V14.2913C17.604 14.7258 17.9562 15.078 18.3907 15.078H20.3637C20.7982 15.078 21.1504 14.7258 21.1504 14.2913V13.0345C21.1504 12.6 20.7982 12.2478 20.3637 12.2478Z" fill="#403F41"/>
<path d="M7.96232 17.771H5.98937C5.55487 17.771 5.20264 18.1232 5.20264 18.5577V19.8145C5.20264 20.249 5.55487 20.6012 5.98937 20.6012H7.96232C8.39682 20.6012 8.74905 20.249 8.74905 19.8145V18.5577C8.74905 18.1232 8.39682 17.771 7.96232 17.771Z" fill="#403F41"/>
<path d="M14.1628 17.771H12.1898C11.7553 17.771 11.4031 18.1232 11.4031 18.5577V19.8145C11.4031 20.249 11.7553 20.6012 12.1898 20.6012H14.1628C14.5973 20.6012 14.9495 20.249 14.9495 19.8145V18.5577C14.9495 18.1232 14.5973 17.771 14.1628 17.771Z" fill="#403F41"/>
<path d="M20.3637 17.771H18.3907C17.9562 17.771 17.604 18.1232 17.604 18.5577V19.8145C17.604 20.249 17.9562 20.6012 18.3907 20.6012H20.3637C20.7982 20.6012 21.1504 20.249 21.1504 19.8145V18.5577C21.1504 18.1232 20.7982 17.771 20.3637 17.771Z" fill="#403F41"/>
<path d="M31.0774 13.9615C29.3314 13.9615 27.7073 14.4906 26.3531 15.3939V6.94922C26.3531 4.93486 24.7137 3.29622 22.7001 3.29622H20.5455V1.47815C20.5455 0.679156 19.8975 0.0319824 19.0993 0.0319824C18.301 0.0319824 17.6531 0.679923 17.6531 1.47815V3.29622H8.70157V1.47815C8.70157 0.679156 8.05363 0.0319824 7.2554 0.0319824C6.45716 0.0319824 5.80922 0.679923 5.80922 1.47815V3.29622H3.65454C1.6394 3.29622 0 4.93562 0 6.94999V21.5988C0 23.6132 1.6394 25.2526 3.653 25.2526H22.6994C22.8014 25.2526 22.9026 25.2457 23.0023 25.2372C24.1478 28.6004 27.33 31.0304 31.0766 31.0304C35.7824 31.0304 39.6102 27.2018 39.6102 22.4967C39.6102 17.7917 35.7816 13.9631 31.0766 13.9631L31.0774 13.9615ZM31.0774 29.1893C27.3868 29.1893 24.384 26.1865 24.384 22.496C24.384 18.8054 27.3868 15.8026 31.0774 15.8026C34.7679 15.8026 37.7707 18.8054 37.7707 22.496C37.7707 26.1865 34.7679 29.1893 31.0774 29.1893ZM24.5128 17.0502C23.2837 18.5293 22.5429 20.4271 22.5429 22.496C22.5429 22.8057 22.5613 23.1109 22.5943 23.4123H3.653C2.6531 23.4123 1.8403 22.5987 1.8403 21.5988V9.43747H24.5128V17.0494V17.0502Z" fill="#403F41"/>
<path d="M31.4652 17.3002C30.9568 17.3002 30.5451 17.7119 30.5451 18.2203V22.0282H28.2815C27.7731 22.0282 27.3613 22.44 27.3613 22.9484C27.3613 23.4568 27.7731 23.8685 28.2815 23.8685H31.4652C31.9736 23.8685 32.3854 23.4568 32.3854 22.9484V18.2203C32.3854 17.7119 31.9736 17.3002 31.4652 17.3002Z" fill="#403F41"/>
</svg>
